<?xml version="1.0" encoding="UTF-8"?>
<svg id="map-container" xmlns="http://www.w3.org/2000/svg" viewBox="0 0 595.28 841.89">
  <defs>
    <style>
      .cls-1 {
        fill: #eee817;
      }

      .cls-1, .cls-2, .cls-3, .cls-4, .cls-5 {
        stroke-width: 0px;
      }

      .cls-2 {
        fill: blue;
      }

      .cls-3 {
        fill: #0170bf;
      }

      .cls-6, .cls-7 {
        stroke: #000;
      }

      .cls-6, .cls-7, .cls-8 {
        fill: none;
        stroke-miterlimit: 10;
      }

      .cls-7 {
        stroke-width: .5px;
      }

      .cls-4 {
        fill: lime;
      }

      .cls-5 {
        fill: #fff;
      }

      .cls-8 {
        stroke: red;
      }
    </style>
  </defs>
  <g id="map">
    <g id="ground">
      <g id="icons">
        <g id="acessibility">
          <path id="background" class="cls-3" d="M155.83,378.42l4.19,4.11c.18.18.47.18.65,0l4.11-4.19c.18-.18.18-.47,0-.65l-4.19-4.11c-.18-.18-.47-.18-.65,0l-4.11,4.19c-.18.18-.18.47,0,.65"/>
          <path id="head" class="cls-5" d="M162.61,376.23c-.26-.26-.69-.26-.95,0s-.26.69,0,.95.69.26.95,0,.26-.69,0-.95M161.77,377.08c-.2-.2-.21-.53,0-.73s.53-.21.73,0,.21.53,0,.73-.53.21-.73,0"/>
          <path id="wheelchair" class="cls-5" d="M158.09,378.62c-.16.55-.02,1.17.42,1.61.64.62,1.66.61,2.28-.02.38-.38.52-.91.44-1.4-.01-.05.02-.09.06-.1.04,0,.08.02.1.06.03.19.08.65-.17,1.12-.08.16-.18.3-.31.43-.69.7-1.81.71-2.51.02-.48-.47-.64-1.15-.46-1.75,0-.04.05-.07.09-.07.04,0,.08.05.07.1"/>
          <path id="body" class="cls-5" d="M157.28,377.81c-.19.11-.27.32-.21.5.07.22.35.35.6.24.32-.16.64-.33.96-.49l1.32,1.3s.1.11.25.11c.17,0,.27-.11.29-.12l1.21-1.24c.21-.28.17-.66-.08-.89-.24-.22-.61-.24-.87-.04l-.89.9-.91-.89s-.09-.07-.19-.08c-.08-.01-.15,0-.18.02-.43.22-.87.45-1.3.67M157.26,378.28c-.06-.11-.01-.26.1-.32.43-.22.85-.44,1.28-.66.02,0,.05-.03.09-.03.08,0,.13.06.14.07l.96.94s.02.01.04.01c.02,0,.03,0,.04-.01l.94-.96c.2-.16.48-.14.66.03.18.18.21.47.05.67l-1.19,1.21s-.06.08-.16.08c-.09,0-.15-.07-.15-.08-.78-.75-1.34-1.3-1.36-1.32,0,0-.01-.01-.03-.02,0,0-.01,0-.03,0-.05,0-.68.33-1.05.5-.12.06-.27,0-.33-.11"/>
        </g>
        <g id="acessibility-2" data-name="acessibility">
          <path id="background-2" data-name="background" class="cls-3" d="M135.09,378.42l4.19,4.11c.18.18.47.18.65,0l4.11-4.19c.18-.18.18-.47,0-.65l-4.19-4.11c-.18-.18-.47-.18-.65,0l-4.11,4.19c-.18.18-.18.47,0,.65"/>
          <path id="head-2" data-name="head" class="cls-5" d="M141.87,376.23c-.26-.26-.69-.26-.95,0s-.26.69,0,.95.69.26.95,0,.26-.69,0-.95M141.03,377.08c-.2-.2-.21-.53,0-.73s.53-.21.73,0,.21.53,0,.73-.53.21-.73,0"/>
          <path id="wheelchair-2" data-name="wheelchair" class="cls-5" d="M137.35,378.62c-.16.55-.02,1.17.42,1.61.64.62,1.66.61,2.28-.02.38-.38.52-.91.44-1.4-.01-.05.02-.09.06-.1.04,0,.08.02.1.06.03.19.08.65-.17,1.12-.08.16-.18.3-.31.43-.69.7-1.81.71-2.51.02-.48-.47-.64-1.15-.46-1.75,0-.04.05-.07.09-.07.04,0,.08.05.07.1"/>
          <path id="body-2" data-name="body" class="cls-5" d="M136.54,377.81c-.19.11-.27.32-.21.5.07.22.35.35.6.24.32-.16.64-.33.96-.49l1.32,1.3s.1.11.25.11c.17,0,.27-.11.29-.12l1.21-1.24c.21-.28.17-.66-.08-.89-.24-.22-.61-.24-.87-.04l-.89.9-.91-.89s-.09-.07-.19-.08c-.08-.01-.15,0-.18.02-.43.22-.87.45-1.3.67M136.52,378.28c-.06-.11-.01-.26.1-.32.43-.22.85-.44,1.28-.66.02,0,.05-.03.09-.03.08,0,.13.06.14.07l.96.94s.02.01.04.01c.02,0,.03,0,.04-.01l.94-.96c.2-.16.48-.14.66.03.18.18.21.47.05.67l-1.19,1.21s-.06.08-.16.08c-.09,0-.15-.07-.15-.08-.78-.75-1.34-1.3-1.36-1.32,0,0-.01-.01-.03-.02,0,0-.01,0-.03,0-.05,0-.68.33-1.05.5-.12.06-.27,0-.33-.11"/>
        </g>
        <g id="acessibility-3" data-name="acessibility">
          <path id="background-3" data-name="background" class="cls-3" d="M114.87,378.42l4.19,4.11c.18.18.47.18.65,0l4.11-4.19c.18-.18.18-.47,0-.65l-4.19-4.11c-.18-.18-.47-.18-.65,0l-4.11,4.19c-.18.18-.18.47,0,.65"/>
          <path id="head-3" data-name="head" class="cls-5" d="M121.65,376.23c-.26-.26-.69-.26-.95,0s-.26.69,0,.95.69.26.95,0,.26-.69,0-.95M120.82,377.08c-.2-.2-.21-.53,0-.73s.53-.21.73,0,.21.53,0,.73-.53.21-.73,0"/>
          <path id="wheelchair-3" data-name="wheelchair" class="cls-5" d="M117.13,378.62c-.16.55-.02,1.17.42,1.61.64.62,1.66.61,2.28-.02.38-.38.52-.91.44-1.4-.01-.05.02-.09.06-.1.04,0,.08.02.1.06.03.19.08.65-.17,1.12-.08.16-.18.3-.31.43-.69.7-1.81.71-2.51.02-.48-.47-.64-1.15-.46-1.75,0-.04.05-.07.09-.07.04,0,.08.05.07.1"/>
          <path id="body-3" data-name="body" class="cls-5" d="M116.33,377.81c-.19.11-.27.32-.21.5.07.22.35.35.6.24.32-.16.64-.33.96-.49l1.32,1.3s.1.11.25.11c.17,0,.27-.11.29-.12l1.21-1.24c.21-.28.17-.66-.08-.89-.24-.22-.61-.24-.87-.04l-.89.9-.91-.89s-.09-.07-.19-.08c-.08-.01-.15,0-.18.02-.43.22-.87.45-1.3.67M116.3,378.28c-.06-.11-.01-.26.1-.32.43-.22.85-.44,1.28-.66.02,0,.05-.03.09-.03.08,0,.13.06.14.07l.96.94s.02.01.04.01c.02,0,.03,0,.04-.01l.94-.96c.2-.16.48-.14.66.03.18.18.21.47.05.67l-1.19,1.21s-.06.08-.16.08c-.09,0-.15-.07-.15-.08-.78-.75-1.34-1.3-1.36-1.32,0,0-.01-.01-.03-.02,0,0-.01,0-.03,0-.05,0-.68.33-1.05.5-.12.06-.27,0-.33-.11"/>
        </g>
        <path class="cls-1" d="M112.07,378.15l12.85-12.92c.07-.07.07-.18,0-.25l-2.93-2.91c-.07-.07-.18-.07-.25,0l-7.37,7.41h0,0s-5.47,5.51-5.47,5.51c-.07.07-.07.18,0,.25l2.93,2.91c.07.07.18.07.25,0M111.84,377.66v-5.16s1.05-1.05,1.05-1.05v5.39s-.8.81-.8.81c-.07.07-.17.07-.25,0M111.42,372.94v4.3s-1.05-1.04-1.05-1.04v-2.21s1.05-1.05,1.05-1.05ZM119.24,370.46v-5.39s1.05-1.06,1.05-1.06v5.39s-1.05,1.06-1.05,1.06ZM118.82,370.89l-1.08,1.08v-5.39s1.08-1.08,1.08-1.08v5.39ZM117.31,372.4l-1.05,1.05v-5.39s1.05-1.05,1.05-1.05v5.39ZM115.84,373.88l-1.05,1.05v-5.39s1.05-1.05,1.05-1.05v5.39ZM122.2,367.49v-4.71s1.05,1.04,1.05,1.04v2.6s-1.05,1.06-1.05,1.06ZM124.42,364.99c.07.07.07.18,0,.26l-.75.75v-1.75s.75.74.75.74ZM121.77,362.54v5.38s-1.05,1.06-1.05,1.06v-5.39s1.01-1.01,1.01-1.01c.01-.01.03-.02.04-.03M114.37,375.36l-1.05,1.05v-5.39s1.05-1.05,1.05-1.05v5.39ZM109.39,375.23c-.07-.07-.07-.18,0-.26l.55-.55v1.35s-.55-.55-.55-.55Z"/>
        <path class="cls-1" d="M132.29,378.15l12.85-12.92c.07-.07.07-.18,0-.25l-2.93-2.91c-.07-.07-.18-.07-.25,0l-7.37,7.41h0,0s-5.47,5.51-5.47,5.51c-.07.07-.07.18,0,.25l2.93,2.91c.07.07.18.07.25,0M132.06,377.66v-5.16s1.05-1.05,1.05-1.05v5.39s-.8.81-.8.81c-.07.07-.17.07-.25,0M131.63,372.94v4.3s-1.05-1.04-1.05-1.04v-2.21s1.05-1.05,1.05-1.05ZM139.46,370.46v-5.39s1.05-1.06,1.05-1.06v5.39s-1.05,1.06-1.05,1.06ZM139.04,370.89l-1.08,1.08v-5.39s1.08-1.08,1.08-1.08v5.39ZM137.53,372.4l-1.05,1.05v-5.39s1.05-1.05,1.05-1.05v5.39ZM136.06,373.88l-1.05,1.05v-5.39s1.05-1.05,1.05-1.05v5.39ZM142.42,367.49v-4.71s1.05,1.04,1.05,1.04v2.6s-1.05,1.06-1.05,1.06ZM144.64,364.99c.07.07.07.18,0,.26l-.75.75v-1.75s.75.74.75.74ZM141.99,362.54v5.38s-1.05,1.06-1.05,1.06v-5.39s1.01-1.01,1.01-1.01c.01-.01.03-.02.04-.03M134.58,375.36l-1.05,1.05v-5.39s1.05-1.05,1.05-1.05v5.39ZM129.61,375.23c-.07-.07-.07-.18,0-.26l.55-.55v1.35s-.55-.55-.55-.55Z"/>
        <path class="cls-1" d="M153.03,378.15l12.85-12.92c.07-.07.07-.18,0-.25l-2.93-2.91c-.07-.07-.18-.07-.25,0l-7.37,7.41h0,0s-5.47,5.51-5.47,5.51c-.07.07-.07.18,0,.25l2.93,2.91c.07.07.18.07.25,0M152.8,377.66v-5.16s1.05-1.05,1.05-1.05v5.39s-.8.81-.8.81c-.07.07-.17.07-.25,0M152.37,372.94v4.3s-1.05-1.04-1.05-1.04v-2.21s1.05-1.05,1.05-1.05ZM160.2,370.46v-5.39s1.05-1.06,1.05-1.06v5.39s-1.05,1.06-1.05,1.06ZM159.77,370.89l-1.08,1.08v-5.39s1.08-1.08,1.08-1.08v5.39ZM158.27,372.4l-1.05,1.05v-5.39s1.05-1.05,1.05-1.05v5.39ZM156.8,373.88l-1.05,1.05v-5.39s1.05-1.05,1.05-1.05v5.39ZM163.16,367.49v-4.71s1.05,1.04,1.05,1.04v2.6s-1.05,1.06-1.05,1.06ZM165.38,364.99c.07.07.07.18,0,.26l-.75.75v-1.75s.75.74.75.74ZM162.73,362.54v5.38s-1.05,1.06-1.05,1.06v-5.39s1.01-1.01,1.01-1.01c.01-.01.03-.02.04-.03M155.32,375.36l-1.05,1.05v-5.39s1.05-1.05,1.05-1.05v5.39ZM150.35,375.23c-.07-.07-.07-.18,0-.26l.55-.55v1.35s-.55-.55-.55-.55Z"/>
      </g>
      <g id="routes">
        <polyline class="cls-8" points="282.97 817.75 282.97 706.17 293.3 706.17 293.3 557.76 266.41 557.76 262.91 557.76 262.91 554.94 238.07 554.94 238.07 549.78"/>
        <line class="cls-8" x1="238.07" y1="554.94" x2="232.14" y2="554.94"/>
        <line class="cls-8" x1="228.41" y1="526.27" x2="232.14" y2="526.27"/>
        <line class="cls-8" x1="205.57" y1="554.94" x2="200.31" y2="554.94"/>
        <polyline class="cls-8" points="172.96 558 172.96 554.94 200.31 554.94 200.31 545.64 197.89 545.64"/>
        <polyline class="cls-8" points="172.96 554.94 166.54 554.94 166.54 549.78"/>
        <polyline class="cls-8" points="166.54 554.94 140.54 554.94 140.54 558"/>
        <polyline class="cls-8" points="140.54 554.94 135.26 554.94 135.26 569.18 127.17 569.18"/>
        <polyline class="cls-8" points="135.26 554.94 121.76 554.94 121.76 549.78"/>
        <polyline class="cls-8" points="293.3 557.76 293.3 454.78 266.12 454.78 263.33 454.78 263.33 457.98 231.79 457.98 231.79 462.49"/>
        <polyline class="cls-8" points="231.79 457.98 205.68 457.98 205.68 454.24"/>
        <polyline class="cls-8" points="205.68 457.98 200.25 457.98 200.25 454.24"/>
        <polyline class="cls-8" points="200.25 457.98 188.56 457.98 188.56 467.41"/>
        <polyline class="cls-8" points="188.56 457.98 184.73 457.98 184.73 467.41"/>
        <polyline class="cls-8" points="184.73 457.98 168.08 457.98 168.08 454.24"/>
        <polyline class="cls-8" points="168.08 457.98 135.6 457.98 135.6 454.24"/>
        <polyline class="cls-8" points="135.6 457.98 134.36 457.98 134.36 462.49"/>
        <polyline class="cls-8" points="134.36 457.98 119.29 457.98 119.29 462.49"/>
        <polyline class="cls-8" points="239.05 318.72 239.05 321.83 263.55 321.83 263.55 324.78 266.41 324.78 293.3 324.78 293.3 388.77"/>
        <polyline class="cls-8" points="239.05 321.83 223.58 321.83 223.58 318.72"/>
        <polyline class="cls-8" points="223.58 321.83 189.56 321.83 189.56 325.22"/>
        <polyline class="cls-8" points="189.56 321.83 174.36 321.83 174.36 318.72"/>
        <polyline class="cls-8" points="174.36 321.83 166.6 321.83 166.6 288 162.65 288"/>
        <polyline class="cls-8" points="166.6 288 166.6 283.63 162.65 283.63"/>
        <polyline class="cls-8" points="166.6 283.63 166.6 278.41 169.83 278.41"/>
        <polyline class="cls-8" points="166.6 278.41 166.6 254.54 169.83 254.54"/>
        <polyline class="cls-8" points="166.6 224.6 133.09 224.6 133.09 256.77 129.22 256.77"/>
        <polyline class="cls-8" points="166.6 321.83 144.73 321.83 144.73 325.22"/>
        <polyline class="cls-8" points="133.09 256.77 133.09 295.27 129.22 295.27"/>
        <polyline class="cls-8" points="144.73 321.83 133.09 321.83 133.09 295.27"/>
        <polyline class="cls-8" points="224.02 155.44 293.3 155.44 293.3 221.53 266.12 221.53 263.43 221.53 263.43 218.26 239.05 218.26 239.05 224.6 166.6 224.6 166.6 254.54"/>
        <polyline class="cls-8" points="198.61 176.16 194.64 174.93 191.04 172.98 187.91 170.4 185.33 167.27 183.38 163.67 182.15 159.7 181.72 155.44 182.15 151.18 183.38 147.21 185.33 143.61 187.91 140.48 191.04 137.9 194.64 135.95 198.61 134.72 202.87 134.29 207.13 134.72 211.1 135.95 214.7 137.9 217.83 140.48 220.41 143.61 222.36 147.21 223.59 151.18 224.02 155.44 224.02 155.44 223.59 159.7 222.36 163.67 220.41 167.27 217.83 170.4 214.7 172.98 211.1 174.93 207.13 176.16"/>
        <polyline class="cls-8" points="198.61 409.49 194.64 408.26 191.04 406.31 187.91 403.73 185.33 400.6 183.38 397 182.15 393.03 181.72 388.77 182.15 384.51 183.38 380.54 185.33 376.94 187.91 373.81 191.04 371.23 194.64 369.28 198.61 368.05 202.87 367.62 207.13 368.05 211.1 369.28 214.7 371.23 217.83 373.81 220.41 376.94 222.36 380.54 223.59 384.51 224.02 388.77 224.02 388.77 223.59 393.03 222.36 397 220.41 400.6 217.83 403.73 214.7 406.31 211.1 408.26 207.13 409.49"/>
        <polyline class="cls-8" points="293.3 454.78 293.3 388.77 224.02 388.77"/>
        <line class="cls-8" x1="239.05" y1="227.35" x2="239.05" y2="224.6"/>
        <line class="cls-8" x1="293.3" y1="324.78" x2="293.3" y2="221.53"/>
        <line class="cls-8" x1="200.31" y1="527.8" x2="200.31" y2="545.64"/>
        <polyline class="cls-8" points="232.14 524.68 232.14 526.27 232.14 554.94 205.57 554.94 205.57 558"/>
      </g>
      <g id="places">
        <circle id="room-teachers-del" class="cls-4" cx="239.05" cy="227.35" r="1.6"/>
        <circle id="room-d114" class="cls-4" cx="129.15" cy="256.77" r="1.6"/>
        <circle id="room-d113" class="cls-4" cx="129.22" cy="295.27" r="1.6"/>
        <circle id="room-d112" class="cls-4" cx="144.73" cy="325.22" r="1.6"/>
        <circle id="room-d111" class="cls-4" cx="189.56" cy="325.22" r="1.6"/>
        <circle id="room-d109" class="cls-4" cx="162.65" cy="288" r="1.6"/>
        <circle id="room-d108" class="cls-4" cx="162.65" cy="283.63" r="1.6"/>
        <circle id="room-d105" class="cls-4" cx="169.83" cy="254.54" r="1.6"/>
        <circle id="room-d104" class="cls-4" cx="169.83" cy="278.41" r="1.6"/>
        <circle id="room-d103" class="cls-4" cx="174.36" cy="318.72" r="1.6"/>
        <circle id="room-d102" class="cls-4" cx="223.58" cy="318.72" r="1.6"/>
        <circle id="room-d101" class="cls-4" cx="239.05" cy="318.72" r="1.6"/>
        <circle id="entrance2-block-d" class="cls-4" cx="266.12" cy="221.53" r="1.6"/>
        <circle id="entrance1-block-d" class="cls-4" cx="266.41" cy="324.78" r="1.6"/>
        <circle id="room-c135" class="cls-4" cx="205.68" cy="454.24" r="1.6"/>
        <circle id="room-c134" class="cls-4" cx="200.25" cy="454.24" r="1.6"/>
        <circle id="room-c133" class="cls-4" cx="168.08" cy="454.24" r="1.6"/>
        <circle id="room-c132" class="cls-4" cx="135.6" cy="454.24" r="1.6"/>
        <circle id="room-c131" class="cls-4" cx="119.29" cy="462.49" r="1.6"/>
        <circle id="room-c130" class="cls-4" cx="134.36" cy="462.49" r="1.6"/>
        <circle id="room-c122" class="cls-4" cx="184.73" cy="467.41" r="1.6"/>
        <circle id="room-c121" class="cls-4" cx="188.56" cy="467.41" r="1.6"/>
        <circle id="room-c117" class="cls-4" cx="231.79" cy="462.49" r="1.6"/>
        <circle id="room-c111" class="cls-4" cx="238.07" cy="549.78" r="1.6"/>
        <circle id="room-c110" class="cls-4" cx="232.14" cy="524.68" r="1.6"/>
        <circle id="room-c109" class="cls-4" cx="228.41" cy="526.27" r="1.6"/>
        <circle id="room-c108" class="cls-4" cx="200.31" cy="527.87" r="1.6"/>
        <circle id="room-c107" class="cls-4" cx="197.89" cy="545.64" r="1.6"/>
        <circle id="room-c106" class="cls-4" cx="166.54" cy="549.78" r="1.6"/>
        <circle id="room-c105" class="cls-4" cx="121.76" cy="549.78" r="1.6"/>
        <circle id="room-c104" class="cls-4" cx="127.17" cy="569.18" r="1.6"/>
        <circle id="room-c103" class="cls-4" cx="140.54" cy="558" r="1.6"/>
        <circle id="room-c102" class="cls-4" cx="172.96" cy="558" r="1.6"/>
        <circle id="room-c101" class="cls-4" cx="205.57" cy="558" r="1.6"/>
        <circle id="entrance2-block-c" class="cls-4" cx="266.12" cy="454.78" r="1.6"/>
        <circle id="entrance1-block-c" class="cls-4" cx="266.41" cy="557.76" r="1.6"/>
        <circle id="gate-a" class="cls-4" cx="282.97" cy="817.75" r="1.6"/>
      </g>
      <g id="transitions">
        <circle id="ground_mezzanine_spiral-cd" class="cls-2" cx="207.13" cy="409.49" r="1.6"/>
        <circle id="ground_mezzanine_spiral-d" class="cls-2" cx="207.13" cy="176.16" r="1.6"/>
      </g>
      <g id="outside-walls">
        <polyline class="cls-6" points="226.01 142.57 267 142.57 267 117.91 105.39 117.91 105.39 39.52 267 39.52"/>
        <polyline class="cls-6" points="225.85 401.17 225.85 401.41 267.72 401.41 267.72 428.93 105.39 428.93 105.39 583.57 267.72 583.57 267.72 597.04 185.43 597.04 185.43 624.52 267.72 624.52 267.72 660.59 235.24 660.59 235.24 661.57 105.39 661.57 105.39 680 133 680 133 720.52 105 720.52 105 816.96 266.74 816.96"/>
        <polyline class="cls-6" points="225.99 168.33 267 168.33 267 195.85 105.39 195.85 105.39 350.36 233.93 350.36 233.93 375.78 225.85 375.78 225.85 375.93"/>
        <polyline class="cls-6" points="300.13 39.26 494.22 39.26 494.22 116.87 456.26 116.87 456.26 129.98 434.28 129.98 434.28 116.87 331 116.87 331 350.35 332.48 350.35 332.48 600.96 357.52 600.96 357.52 615.74 338.83 615.74 338.83 646.52 341 646.52 341 619.65 354.22 619.65 354.22 651.57 349.26 651.57 349.26 624.43 345.87 624.43 345.87 651.13 334.48 651.13 334.48 615.74 332.48 615.74 332.48 660.87 494.22 660.87 494.22 816.96 343.17 816.96"/>
        <line class="cls-6" x1="332.74" y1="816.96" x2="300.13" y2="816.96"/>
        <path class="cls-6" d="M176.63,393.89c2.47,12.07,13.14,21.14,25.94,21.14,10.05,0,18.79-5.6,23.28-13.86M225.85,375.93c-4.49-8.25-13.23-13.86-23.28-13.86-12.6,0-23.14,8.8-25.82,20.59M202.57,404.17c-8.63,0-15.62-6.99-15.62-15.62s6.99-15.61,15.62-15.61,15.61,6.99,15.61,15.61-6.99,15.62-15.61,15.62Z"/>
        <path class="cls-6" d="M176.92,160.71c2.45,12.09,13.14,21.21,25.95,21.21,9.94,0,18.6-5.48,23.12-13.59M226.01,142.57c-4.51-8.12-13.19-13.61-23.14-13.61-12.76,0-23.41,9.02-25.92,21.04M202.87,171.06c-8.63,0-15.62-7-15.62-15.62s6.99-15.62,15.62-15.62,15.62,6.99,15.62,15.62-7,15.62-15.62,15.62Z"/>
      </g>
      <g id="inside-walls">
        <polyline class="cls-7" points="266.96 39.52 266.96 58.52 105.39 58.52"/>
        <line class="cls-7" x1="246.29" y1="39.52" x2="246.29" y2="58.52"/>
        <line class="cls-7" x1="235.47" y1="39.52" x2="235.47" y2="53.12"/>
        <line class="cls-7" x1="235.47" y1="56.45" x2="235.47" y2="58.52"/>
        <line class="cls-7" x1="226.5" y1="58.52" x2="226.5" y2="50.51"/>
        <line class="cls-7" x1="218.87" y1="58.52" x2="218.87" y2="39.52"/>
        <line class="cls-7" x1="226.5" y1="50.97" x2="218.87" y2="50.97"/>
        <line class="cls-7" x1="223.89" y1="39.52" x2="223.89" y2="50.97"/>
        <line class="cls-7" x1="202.79" y1="58.52" x2="202.79" y2="39.52"/>
        <line class="cls-7" x1="158.97" y1="58.52" x2="158.97" y2="39.52"/>
        <line class="cls-7" x1="169.53" y1="58.52" x2="169.53" y2="39.52"/>
        <line class="cls-7" x1="158.97" y1="49.57" x2="169.53" y2="49.57"/>
        <line class="cls-7" x1="126.98" y1="58.52" x2="126.98" y2="39.52"/>
        <line class="cls-7" x1="105.39" y1="70.24" x2="120.07" y2="70.24"/>
        <polyline class="cls-7" points="105.39 87.49 136.53 87.49 136.53 117.91"/>
        <polyline class="cls-7" points="251.09 117.91 251.09 81.16 266.96 81.16"/>
        <line class="cls-7" x1="266.96" y1="58.52" x2="266.96" y2="117.91"/>
        <polyline class="cls-7" points="253.63 70.26 260.72 70.26 260.72 81.16"/>
        <line class="cls-7" x1="266.83" y1="217.04" x2="266.83" y2="195.85"/>
        <polyline class="cls-7" points="251.17 195.85 251.17 208.48 257.09 208.48"/>
        <line class="cls-7" x1="234.87" y1="215.52" x2="234.87" y2="195.85"/>
        <line class="cls-7" x1="251.17" y1="208.48" x2="242.17" y2="208.48"/>
        <line class="cls-7" x1="247.35" y1="215.52" x2="247.35" y2="208.48"/>
        <polyline class="cls-7" points="219.35 195.85 219.35 215.52 266.83 215.52"/>
        <polyline class="cls-7" points="219.35 215.52 219.35 220.89 186.39 220.89 186.39 195.85"/>
        <line class="cls-7" x1="202.87" y1="195.85" x2="202.87" y2="215.87"/>
        <polyline class="cls-7" points="186.39 220.89 169.96 220.89 169.96 195.85"/>
        <polyline class="cls-7" points="126.39 195.85 126.39 220.89 169.96 220.89"/>
        <polyline class="cls-7" points="105.39 227.35 162.65 227.35 162.65 318.72 105.39 318.72"/>
        <line class="cls-7" x1="126.39" y1="211.3" x2="105.39" y2="211.3"/>
        <polyline class="cls-7" points="136.63 318.72 136.63 285.78 162.65 285.78"/>
        <line class="cls-7" x1="136.63" y1="227.35" x2="136.63" y2="285.78"/>
        <line class="cls-7" x1="162.65" y1="259.37" x2="136.63" y2="259.37"/>
        <line class="cls-7" x1="129.22" y1="318.72" x2="129.22" y2="227.35"/>
        <line class="cls-7" x1="105.39" y1="253.91" x2="129.22" y2="253.91"/>
        <line class="cls-7" x1="105.39" y1="292.09" x2="129.22" y2="292.09"/>
        <polyline class="cls-7" points="162.65 227.35 266.83 227.35 266.83 350.22 233.93 350.22"/>
        <line class="cls-7" x1="266.83" y1="224.96" x2="266.83" y2="227.35"/>
        <line class="cls-7" x1="162.65" y1="318.72" x2="266.83" y2="318.72"/>
        <line class="cls-7" x1="228.33" y1="227.35" x2="228.33" y2="248.54"/>
        <line class="cls-7" x1="202.57" y1="227.35" x2="202.57" y2="318.72"/>
        <line class="cls-7" x1="228.46" y1="318.72" x2="228.46" y2="295.43"/>
        <line class="cls-7" x1="202.57" y1="281.61" x2="228.46" y2="281.61"/>
        <line class="cls-7" x1="202.57" y1="264.52" x2="228.46" y2="264.52"/>
        <line class="cls-7" x1="169.83" y1="227.35" x2="169.83" y2="318.72"/>
        <line class="cls-7" x1="202.57" y1="249.78" x2="169.83" y2="249.78"/>
        <polyline class="cls-7" points="169.83 296.87 189.07 296.87 189.07 304.43 183.07 304.43 183.07 296.87"/>
        <polyline class="cls-7" points="175.96 296.87 175.96 304.43 183.07 304.43"/>
        <polyline class="cls-7" points="249.83 325.22 126.1 325.22 126.1 334.83 138.17 334.83 138.17 350.36"/>
        <polyline class="cls-7" points="122.39 323.87 122.39 330.61 111.74 330.61 111.74 334.83 126.1 334.83"/>
        <line class="cls-7" x1="126.1" y1="325.22" x2="126.1" y2="323.87"/>
        <line class="cls-7" x1="126.39" y1="334.83" x2="126.39" y2="350.36"/>
        <polyline class="cls-7" points="130.01 339.42 126.39 339.42 110.64 339.42"/>
        <line class="cls-7" x1="121.92" y1="339.42" x2="121.92" y2="344.48"/>
        <line class="cls-7" x1="113.93" y1="339.42" x2="113.93" y2="350.36"/>
        <line class="cls-7" x1="107.1" y1="339.42" x2="105.39" y2="339.42"/>
        <line class="cls-7" x1="138.17" y1="334.83" x2="138.17" y2="325.22"/>
        <line class="cls-7" x1="202.57" y1="350.22" x2="202.57" y2="325.22"/>
        <polyline class="cls-7" points="171.3 350.36 171.3 339.3 171.3 335.52 171.3 325.22"/>
        <polyline class="cls-7" points="226.86 325.22 226.86 335.87 235.79 335.87 235.79 350.22"/>
        <line class="cls-7" x1="234.16" y1="325.22" x2="234.16" y2="335.87"/>
        <polyline class="cls-7" points="226.86 335.87 221.74 335.87 221.74 341.22 235.79 341.22"/>
        <line class="cls-7" x1="223.27" y1="341.22" x2="223.27" y2="350.36"/>
        <line class="cls-7" x1="229.04" y1="341.22" x2="229.04" y2="350.36"/>
        <polyline class="cls-7" points="266.83 330.54 248.74 330.54 248.74 341.22"/>
        <line class="cls-7" x1="248.74" y1="344.54" x2="248.74" y2="350.22"/>
        <polyline class="cls-7" points="233.93 375.78 267.7 375.78 267.7 350.22 266.83 350.22"/>
        <polyline class="cls-7" points="343.11 39.26 343.11 51 337.76 51 337.76 58.43 300.52 58.43 300.52 39.26"/>
        <polyline class="cls-7" points="494.22 58.43 478.37 58.43 478.37 64.43 343.11 64.43 332.02 64.43 332.02 58.43 332.02 55.04"/>
        <line class="cls-7" x1="343.11" y1="51" x2="343.11" y2="64.43"/>
        <line class="cls-7" x1="364.63" y1="64.43" x2="364.63" y2="39.26"/>
        <line class="cls-7" x1="397.17" y1="39.26" x2="397.17" y2="64.43"/>
        <line class="cls-7" x1="429.22" y1="39.26" x2="429.22" y2="64.43"/>
        <line class="cls-7" x1="461.09" y1="39.26" x2="461.09" y2="64.43"/>
        <line class="cls-7" x1="483.83" y1="39.26" x2="483.83" y2="58.43"/>
        <line class="cls-7" x1="494.22" y1="70.26" x2="479.91" y2="70.26"/>
        <line class="cls-7" x1="456.26" y1="116.87" x2="440.22" y2="116.87"/>
        <line class="cls-7" x1="435.85" y1="116.87" x2="434.28" y2="116.87"/>
        <line class="cls-7" x1="442.66" y1="129.98" x2="442.66" y2="120.42"/>
        <line class="cls-7" x1="449.9" y1="129.98" x2="449.9" y2="116.87"/>
        <polyline class="cls-7" points="451.5 116.87 451.5 77.15 431.15 77.15 431.15 116.87"/>
        <line class="cls-7" x1="409.57" y1="116.87" x2="409.57" y2="82.89"/>
        <polyline class="cls-7" points="300.52 70.96 331 70.96 331 116.87 300.52 116.87"/>
        <line class="cls-7" x1="300.52" y1="141.65" x2="303.61" y2="141.65"/>
        <polyline class="cls-7" points="308.74 141.65 313.78 141.65 313.78 116.87"/>
        <line class="cls-7" x1="311.58" y1="145.5" x2="311.58" y2="161.64"/>
        <line class="cls-7" x1="311.58" y1="142.27" x2="311.58" y2="141.65"/>
        <polyline class="cls-7" points="311.58 165 311.58 194.8 331 194.8"/>
        <line class="cls-7" x1="300.52" y1="194.8" x2="311.58" y2="194.8"/>
        <line class="cls-7" x1="311.58" y1="177.88" x2="319.08" y2="177.88"/>
        <line class="cls-7" x1="322.43" y1="177.88" x2="331" y2="177.88"/>
        <polyline class="cls-7" points="300.52 166.73 311.58 166.73 331 166.73"/>
        <polyline class="cls-7" points="308.65 194.8 308.65 208.61 325.26 208.61 325.26 207.96 331 207.96"/>
        <line class="cls-7" x1="300.52" y1="201.71" x2="308.65" y2="201.71"/>
        <polyline class="cls-7" points="300.52 208.61 308.65 208.61 308.65 209.61"/>
        <polyline class="cls-7" points="316.52 208.61 316.52 218.26 331 218.26"/>
        <polyline class="cls-7" points="300.52 234.61 310.52 234.61 310.52 244.04 331 244.04"/>
        <line class="cls-7" x1="308.65" y1="213.13" x2="308.65" y2="234.61"/>
        <polyline class="cls-7" points="326.78 218.26 326.78 213.61 316.52 213.61 308.65 213.61"/>
        <line class="cls-7" x1="308.65" y1="229.7" x2="331" y2="229.7"/>
        <line class="cls-7" x1="300.52" y1="58.43" x2="300.52" y2="219.91"/>
        <polyline class="cls-7" points="300.52 226.15 300.52 272.96 331 272.96"/>
        <polyline class="cls-7" points="331 343.13 301.09 343.13 301.09 272.96"/>
        <line class="cls-7" x1="331" y1="296.13" x2="301.09" y2="317.91"/>
        <polyline class="cls-7" points="324.55 58.43 324.55 54 321.26 54 321.26 48.85"/>
        <line class="cls-7" x1="300.52" y1="51.55" x2="321.26" y2="51.55"/>
        <polyline class="cls-7" points="327.85 58.43 327.85 50.8 332.02 50.8 332.02 39.26"/>
        <line class="cls-7" x1="332.02" y1="50.8" x2="332.02" y2="51.78"/>
        <line class="cls-7" x1="327.85" y1="50.8" x2="326.18" y2="50.8"/>
        <polyline class="cls-7" points="331 350.35 300.7 350.35 300.7 376.57 332.48 376.57"/>
        <polyline class="cls-7" points="332.48 398.09 324.91 398.09 324.91 387.03 300.7 387.03 300.7 376.57"/>
        <polyline class="cls-7" points="300.7 387.03 300.7 583.92 332.48 583.92"/>
        <line class="cls-7" x1="332.48" y1="570.29" x2="300.7" y2="570.29"/>
        <line class="cls-7" x1="332.48" y1="506.41" x2="300.7" y2="506.41"/>
        <line class="cls-7" x1="332.48" y1="472.86" x2="300.7" y2="472.86"/>
        <line class="cls-7" x1="332.48" y1="461.38" x2="300.7" y2="461.38"/>
        <line class="cls-7" x1="332.48" y1="428.11" x2="300.7" y2="428.11"/>
        <polyline class="cls-7" points="332.48 615.74 332.48 611.91 300.13 611.91 300.13 816.96"/>
        <line class="cls-7" x1="332.48" y1="629.02" x2="330.78" y2="629.02"/>
        <line class="cls-7" x1="324.91" y1="629.02" x2="300.13" y2="629.02"/>
        <polyline class="cls-7" points="300.13 680.48 332.48 680.48 332.48 660.87 300.13 660.87"/>
        <polyline class="cls-7" points="358.76 660.87 358.76 680.48 332.48 680.48"/>
        <line class="cls-7" x1="348.13" y1="660.87" x2="348.13" y2="680.48"/>
        <line class="cls-7" x1="342.82" y1="675.42" x2="348.13" y2="675.42"/>
        <line class="cls-7" x1="342.82" y1="669.13" x2="348.13" y2="669.13"/>
        <polyline class="cls-7" points="266.41 428.93 266.41 448.83 234.98 448.83 234.98 454.24 123.26 454.24 123.26 448.83 110.02 448.83"/>
        <line class="cls-7" x1="138.13" y1="428.93" x2="138.13" y2="454.24"/>
        <line class="cls-7" x1="170.8" y1="428.93" x2="170.8" y2="454.24"/>
        <line class="cls-7" x1="202.89" y1="428.93" x2="202.89" y2="454.24"/>
        <polyline class="cls-7" points="228.46 428.93 228.46 444.2 242.28 444.2"/>
        <line class="cls-7" x1="234.98" y1="448.83" x2="234.98" y2="444.2"/>
        <polyline class="cls-7" points="241.96 428.93 241.96 438.2 235.37 438.2 235.37 428.93"/>
        <line class="cls-7" x1="237.26" y1="444.2" x2="237.26" y2="438.2"/>
        <line class="cls-7" x1="251.52" y1="428.93" x2="251.52" y2="448.83"/>
        <line class="cls-7" x1="257.43" y1="444.39" x2="251.52" y2="444.39"/>
        <polyline class="cls-7" points="105.39 444.78 127.43 444.78 127.43 454.24"/>
        <line class="cls-7" x1="105.39" y1="448.74" x2="106.61" y2="448.74"/>
        <polyline class="cls-7" points="105.39 462.49 252.2 462.49 252.2 460.73 266.41 460.73 266.41 583.57"/>
        <polyline class="cls-7" points="266.41 563.74 235.24 563.74 235.24 568.17 228.59 568.17 228.59 583.57"/>
        <line class="cls-7" x1="251.22" y1="583.57" x2="251.22" y2="563.74"/>
        <line class="cls-7" x1="235.24" y1="568.17" x2="242.22" y2="568.17"/>
        <polyline class="cls-7" points="241.7 583.57 241.7 574.37 235.24 574.37 235.24 583.57"/>
        <line class="cls-7" x1="237.39" y1="568.17" x2="237.39" y2="574.37"/>
        <line class="cls-7" x1="251.22" y1="568.17" x2="257.15" y2="568.17"/>
        <polyline class="cls-7" points="235.24 563.74 235.24 558 123.78 558 123.78 563.74 117.09 563.74 117.09 558 123.78 558"/>
        <polyline class="cls-7" points="105.39 567.3 127.17 567.3 127.17 558"/>
        <line class="cls-7" x1="127.17" y1="583.57" x2="127.17" y2="567.3"/>
        <line class="cls-7" x1="137.7" y1="583.57" x2="137.7" y2="558"/>
        <line class="cls-7" x1="170.13" y1="583.57" x2="170.13" y2="558"/>
        <line class="cls-7" x1="202.74" y1="583.57" x2="202.74" y2="558"/>
        <polyline class="cls-7" points="266.41 483.48 235.22 483.48 235.22 462.49"/>
        <polyline class="cls-7" points="266.41 505.83 235.22 505.83 235.22 483.48"/>
        <line class="cls-7" x1="244.22" y1="505.83" x2="244.22" y2="528.43"/>
        <line class="cls-7" x1="235.22" y1="549.78" x2="235.22" y2="528.43"/>
        <polyline class="cls-7" points="235.24 661.57 235.24 685.91 261.91 685.91 261.91 674.52 253 674.52 253 660.59"/>
        <polyline class="cls-7" points="267.72 660.59 267.72 697.78 235.24 697.78 235.24 685.91"/>
        <line class="cls-7" x1="300.13" y1="697.78" x2="267.72" y2="697.78"/>
        <line class="cls-7" x1="266.74" y1="697.78" x2="266.74" y2="816.96"/>
        <line class="cls-7" x1="257.78" y1="816.96" x2="257.78" y2="784.96"/>
        <polyline class="cls-7" points="257.78 771 257.78 739.17 254.15 739.17 254.15 750.33"/>
        <line class="cls-7" x1="266.74" y1="739.17" x2="263.48" y2="739.17"/>
        <line class="cls-7" x1="235.24" y1="697.78" x2="235.24" y2="816.96"/>
        <line class="cls-7" x1="266.74" y1="719.91" x2="263.3" y2="719.91"/>
        <line class="cls-7" x1="258.22" y1="719.91" x2="235.24" y2="719.91"/>
        <polyline class="cls-7" points="235.24 739.17 248.3 739.17 248.3 749.87 235.24 749.87"/>
        <line class="cls-7" x1="241.3" y1="739.17" x2="241.3" y2="749.87"/>
        <line class="cls-7" x1="131.74" y1="670.48" x2="137.61" y2="661.57"/>
        <line class="cls-7" x1="133" y1="680" x2="139.04" y2="670.87"/>
        <polyline class="cls-7" points="300.13 692.35 332.74 692.35 332.74 784.83 300.13 784.83"/>
        <polyline class="cls-7" points="300.13 798.17 310.52 798.17 310.52 790.65 300.13 790.65"/>
        <line class="cls-7" x1="332.74" y1="795.78" x2="332.74" y2="816.96"/>
        <line class="cls-7" x1="310.52" y1="798.17" x2="332.74" y2="798.17"/>
        <line class="cls-7" x1="316.04" y1="816.96" x2="316.04" y2="798.17"/>
        <polyline class="cls-7" points="310.04 809.43 316.04 809.43 322 809.43"/>
        <polyline class="cls-7" points="310.91 802.57 316.04 802.57 321.26 802.57"/>
        <polyline class="cls-7" points="332.74 713.65 315.22 713.65 315.22 727.57 332.74 727.57"/>
        <polyline class="cls-7" points="300.13 713.65 310.17 713.65 310.17 727.57 300.13 727.57"/>
        <line class="cls-7" x1="300.7" y1="583.92" x2="300.7" y2="593.48"/>
        <polyline class="cls-7" points="300.7 597.26 316 597.26 316 583.92"/>
        <polyline class="cls-7" points="321.3 583.92 321.3 590.59 332.48 590.59"/>
        <polyline class="cls-7" points="202.74 505.83 235.22 505.83 235.22 528.43 266.41 528.43"/>
        <polyline class="cls-7" points="235.22 486.13 203.09 486.13 170.61 486.13 138.13 486.13 105.39 486.13"/>
        <line class="cls-7" x1="212.87" y1="462.49" x2="212.87" y2="486.13"/>
        <line class="cls-7" x1="203.09" y1="474.31" x2="212.87" y2="474.31"/>
        <polyline class="cls-7" points="225.16 486.13 227.09 482.93 227.09 474.49 235.22 474.49"/>
        <line class="cls-7" x1="224.7" y1="505.83" x2="224.7" y2="486.13"/>
        <line class="cls-7" x1="241.17" y1="462.49" x2="241.17" y2="483.48"/>
        <line class="cls-7" x1="266.41" y1="472.98" x2="241.17" y2="472.98"/>
        <polyline class="cls-7" points="138.13 505.83 138.13 549.78 170.61 549.78"/>
        <line class="cls-7" x1="121.96" y1="505.39" x2="121.96" y2="506.43"/>
        <line class="cls-7" x1="121.96" y1="462.49" x2="121.96" y2="486.13"/>
        <line class="cls-7" x1="150.52" y1="462.49" x2="150.52" y2="486.13"/>
        <line class="cls-7" x1="157.04" y1="462.49" x2="157.04" y2="486.13"/>
        <line class="cls-7" x1="150.26" y1="474.73" x2="138.13" y2="474.73"/>
        <line class="cls-7" x1="202.74" y1="505.83" x2="105.39" y2="505.83"/>
        <line class="cls-7" x1="138.13" y1="462.49" x2="138.13" y2="486.13"/>
        <line class="cls-7" x1="170.61" y1="462.49" x2="170.61" y2="486.13"/>
        <polyline class="cls-7" points="133.65 454.24 133.65 441.59 121.96 441.59 121.96 436.91"/>
        <line class="cls-7" x1="170.61" y1="527.8" x2="203.09" y2="527.8"/>
        <polyline class="cls-7" points="197.89 527.8 197.89 549.78 170.61 549.78 170.61 505.83"/>
        <polyline class="cls-7" points="228.41 549.78 228.41 524.68 203.09 524.68"/>
        <line class="cls-7" x1="235.24" y1="524.68" x2="228.41" y2="524.68"/>
        <line class="cls-7" x1="189.07" y1="300.65" x2="202.57" y2="300.65"/>
        <polyline class="cls-7" points="186.67 486.13 186.67 467.41 190.45 467.41 190.45 462.49"/>
        <polyline class="cls-7" points="186.67 467.41 183.41 467.41 183.41 462.49"/>
        <polyline class="cls-7" points="266.41 552.28 252.41 552.28 252.41 549.78 203.09 549.78 203.09 505.83 203.09 462.49"/>
        <line class="cls-7" x1="105.39" y1="549.78" x2="138.13" y2="549.78"/>
      </g>
    </g>
    <g id="mezzanine">
      <g id="routes-2" data-name="routes">
        <polyline class="cls-8" points="240.44 554.96 232.36 554.96 232.36 550.26"/>
        <polyline class="cls-8" points="232.61 451.7 205.61 451.7 205.61 462.68"/>
        <polyline class="cls-8" points="195.77 327.7 232.08 327.7 232.08 315.96 229.21 315.96"/>
        <line class="cls-8" x1="232.08" y1="295.72" x2="232.08" y2="315.96"/>
        <polyline class="cls-8" points="198.61 176.16 194.64 174.93 191.04 172.98 187.91 170.4 185.33 167.27 183.38 163.67 182.15 159.7 181.72 155.44 182.15 151.18 183.38 147.21 185.33 143.61 187.91 140.48 191.04 137.9 194.64 135.95 198.61 134.72 202.87 134.29 207.13 134.72 211.1 135.95 214.7 137.9 217.83 140.48 220.41 143.61 222.36 147.21 223.59 151.18 224.02 155.44 224.02 155.44 223.59 159.7 222.36 163.67 220.41 167.27 217.83 170.4 214.7 172.98 211.1 174.93 207.13 176.16"/>
        <polyline class="cls-8" points="238.21 250.43 238.21 230.58 240.62 230.58"/>
        <polyline class="cls-8" points="179 327.7 195.77 327.7 195.77 333.26"/>
        <polyline class="cls-8" points="238.21 230.58 238.21 218.48 232.08 218.48 232.08 215.74"/>
        <polyline class="cls-8" points="232.08 250.43 232.08 230.58 229.21 230.58"/>
        <polyline class="cls-8" points="232.08 230.58 232.08 218.48 199.32 218.48 199.32 227.36"/>
        <polyline class="cls-8" points="199.32 218.48 173.27 218.48 173.27 215.74"/>
        <polyline class="cls-8" points="166.74 215.74 166.74 218.48 173.27 218.48"/>
        <polyline class="cls-8" points="166.74 218.48 133.43 218.48 129.7 218.48 129.7 215.74"/>
        <polyline class="cls-8" points="130.28 230.37 133.43 230.37 133.43 218.48"/>
        <polyline class="cls-8" points="130.28 252.37 133.43 252.37 133.43 230.37 136.32 230.37"/>
        <polyline class="cls-8" points="130.28 275.62 133.43 275.62 133.43 252.37 136.32 252.37"/>
        <polyline class="cls-8" points="130.28 298.14 133.43 298.14 133.43 275.62 136.32 275.62"/>
        <polyline class="cls-8" points="128.68 321.83 107.87 321.83 107.87 334.79"/>
        <polyline class="cls-8" points="128.68 330.38 128.68 327.7 128.68 321.83 133.43 321.83 133.43 298.14 136.32 298.14"/>
        <polyline class="cls-8" points="128.68 327.7 179 327.7 179 333.28"/>
        <polyline class="cls-8" points="242.79 464.63 240.44 464.63 240.44 451.7 232.61 451.7 232.61 449.06"/>
        <polyline class="cls-8" points="242.79 503.63 240.44 503.63 240.44 464.63"/>
        <polyline class="cls-8" points="242.79 508.07 240.44 508.07 240.44 503.63"/>
        <polyline class="cls-8" points="242.79 547.97 240.44 547.97 240.44 508.07"/>
        <polyline class="cls-8" points="240.44 547.97 240.44 554.96 240.44 560.67 263.28 560.67 263.28 557.91 284.74 557.91 284.74 454.7 284.74 388.77"/>
        <polyline class="cls-8" points="232.08 327.7 238.21 327.7 238.21 333.26"/>
        <polyline class="cls-8" points="240.44 563.79 240.44 560.67 205.95 560.67 205.95 563.79"/>
        <polyline class="cls-8" points="173.15 563.79 173.15 560.67 205.95 560.67"/>
        <polyline class="cls-8" points="167.67 550.26 167.67 560.67 173.15 560.67 173.15 550.26"/>
        <polyline class="cls-8" points="140.6 563.79 140.6 560.67 167.67 560.67"/>
        <polyline class="cls-8" points="140.6 560.67 135 560.67 135 563.79"/>
        <line class="cls-8" x1="135" y1="560.67" x2="135" y2="550.26"/>
        <polyline class="cls-8" points="200.18 462.68 200.18 451.7 205.61 451.7"/>
        <polyline class="cls-8" points="167.63 449.06 167.63 451.7 200.18 451.7 200.18 449.06"/>
        <polyline class="cls-8" points="135.22 462.68 135.22 451.7 140.63 451.7"/>
        <polyline class="cls-8" points="140.63 462.68 140.63 451.7 167.63 451.7"/>
        <line class="cls-8" x1="135.22" y1="449.06" x2="135.22" y2="451.7"/>
        <polyline class="cls-8" points="198.3 409.49 194.33 408.26 190.74 406.31 187.61 403.73 185.03 400.6 183.08 397 181.84 393.03 181.41 388.77 181.84 384.51 183.08 380.54 185.03 376.94 187.61 373.81 190.74 371.23 194.33 369.28 198.3 368.05 202.57 367.62 206.83 368.05 210.8 369.28 214.39 371.23 217.52 373.81 220.1 376.94 222.05 380.54 223.29 384.51 223.72 388.77 223.72 388.77 223.29 393.03 222.05 397 220.1 400.6 217.52 403.73 214.39 406.31 210.8 408.26 206.83 409.49"/>
        <polyline class="cls-8" points="223.72 388.77 284.74 388.77 284.74 324.7"/>
        <polyline class="cls-8" points="284.74 454.7 264.39 454.7 264.39 451.7 240.44 451.7 240.44 449.06"/>
        <line class="cls-8" x1="238.21" y1="296.01" x2="238.21" y2="315.96"/>
        <polyline class="cls-8" points="224.02 155.44 284.74 155.44 284.74 221.49 284.74 324.7 262.63 324.7 262.63 327.7 238.21 327.7 238.21 315.96 240.64 315.96"/>
        <polyline class="cls-8" points="238.21 215.74 238.21 218.48 263.52 218.48 263.52 221.49 284.74 221.49"/>
      </g>
      <g id="places-2" data-name="places">
        <circle id="room-d226" class="cls-4" cx="238.21" cy="215.74" r="1.6"/>
        <circle id="room-d225" class="cls-4" cx="240.62" cy="230.58" r="1.6"/>
        <circle id="room-d224" class="cls-4" cx="238.21" cy="250.43" r="1.6"/>
        <circle id="room-d223" class="cls-4" cx="232.08" cy="250.43" r="1.6"/>
        <circle id="room-d222" class="cls-4" cx="229.21" cy="230.58" r="1.6"/>
        <circle id="room-d221" class="cls-4" cx="232.08" cy="215.74" r="1.6"/>
        <circle id="room-d220" class="cls-4" cx="199.32" cy="227.19" r="1.6"/>
        <circle id="room-d219" class="cls-4" cx="173.27" cy="215.74" r="1.6"/>
        <circle id="room-d218" class="cls-4" cx="166.74" cy="215.74" r="1.6"/>
        <circle id="room-d217" class="cls-4" cx="129.7" cy="215.74" r="1.6"/>
        <circle id="room-d216" class="cls-4" cx="136.32" cy="230.37" r="1.6"/>
        <circle id="room-d215" class="cls-4" cx="130.28" cy="230.37" r="1.6"/>
        <circle id="room-d214" class="cls-4" cx="136.32" cy="252.37" r="1.6"/>
        <circle id="room-d213" class="cls-4" cx="130.28" cy="252.37" r="1.6"/>
        <circle id="room-d212" class="cls-4" cx="136.32" cy="275.62" r="1.6"/>
        <circle id="room-d211" class="cls-4" cx="130.28" cy="275.62" r="1.6"/>
        <circle id="room-d210" class="cls-4" cx="136.32" cy="298.14" r="1.6"/>
        <circle id="room-d209" class="cls-4" cx="130.28" cy="298.14" r="1.6"/>
        <circle id="room-d208" class="cls-4" cx="107.87" cy="334.79" r="1.6"/>
        <circle id="room-644b" class="cls-4" cx="128.68" cy="330.38" r="1.6"/>
        <circle id="room-d207" class="cls-4" cx="179" cy="333.28" r="1.6"/>
        <circle id="room-d206" class="cls-4" cx="195.77" cy="333.28" r="1.6"/>
        <circle id="room-d205" class="cls-4" cx="229.21" cy="315.96" r="1.6"/>
        <circle id="room-d204" class="cls-4" cx="232.08" cy="296.01" r="1.6"/>
        <circle id="room-d203" class="cls-4" cx="238.21" cy="296.01" r="1.6"/>
        <circle id="room-d202" class="cls-4" cx="240.64" cy="315.96" r="1.6"/>
        <circle id="room-d201" class="cls-4" cx="238.21" cy="333.26" r="1.6"/>
        <circle id="room-c222" class="cls-4" cx="240.44" cy="449.06" r="1.6"/>
        <circle id="room-c221" class="cls-4" cx="232.61" cy="449.06" r="1.6"/>
        <circle id="room-c220" class="cls-4" cx="200.18" cy="449.06" r="1.6"/>
        <circle id="room-c219" class="cls-4" cx="167.63" cy="449.06" r="1.6"/>
        <circle id="room-c218" class="cls-4" cx="135.22" cy="449.06" r="1.6"/>
        <circle id="room-c217" class="cls-4" cx="135.22" cy="462.68" r="1.6"/>
        <circle id="room-c216" class="cls-4" cx="140.63" cy="462.68" r="1.6"/>
        <circle id="room-c215" class="cls-4" cx="200.18" cy="462.68" r="1.6"/>
        <circle id="room-c214" class="cls-4" cx="205.61" cy="462.68" r="1.6"/>
        <circle id="room-c213" class="cls-4" cx="242.79" cy="464.63" r="1.6"/>
        <circle id="room-c212" class="cls-4" cx="242.79" cy="503.63" r="1.6"/>
        <circle id="room-c211" class="cls-4" cx="242.79" cy="508.07" r="1.6"/>
        <circle id="room-c210" class="cls-4" cx="242.79" cy="547.97" r="1.6"/>
        <circle id="room-c209" class="cls-4" cx="232.36" cy="550.26" r="1.6"/>
        <circle id="room-c208" class="cls-4" cx="173.15" cy="550.26" r="1.6"/>
        <circle id="room-c207" class="cls-4" cx="167.67" cy="550.26" r="1.6"/>
        <circle id="room-c206" class="cls-4" cx="135" cy="550.26" r="1.6"/>
        <circle id="room-c205" class="cls-4" cx="135" cy="563.79" r="1.6"/>
        <circle id="room-c204" class="cls-4" cx="140.6" cy="563.79" r="1.6"/>
        <circle id="room-c203" class="cls-4" cx="173.15" cy="563.79" r="1.6"/>
        <circle id="room-c202" class="cls-4" cx="205.95" cy="563.79" r="1.6"/>
        <path id="room-c201" class="cls-4" d="M240.44,565.39c-.88,0-1.6-.72-1.6-1.6s.72-1.6,1.6-1.6,1.6.72,1.6,1.6-.72,1.6-1.6,1.6Z"/>
      </g>
      <g id="transitions-2" data-name="transitions">
        <circle id="ground_mezzanine_spiral-cd-2" data-name="ground_mezzanine_spiral-cd" class="cls-2" cx="198.27" cy="409.49" r="1.6"/>
        <circle id="ground_mezzanine_spiral-d-2" data-name="ground_mezzanine_spiral-d" class="cls-2" cx="198.61" cy="176.16" r="1.6"/>
      </g>
      <g id="outside-walls-2" data-name="outside-walls">
        <polyline class="cls-6" points="185.04 624.19 267.1 624.19 267.1 660.77 235.15 660.77 235.15 661.72 104.7 661.72 104.7 680.04 132.7 680.04 132.7 720.55 104.7 720.55 104.7 817.15 494.06 817.15 494.06 759.45"/>
        <polyline class="cls-6" points="494.06 741.4 494.06 660.98 332.33 660.98 332.33 615.64 334.24 615.64 334.24 651.29 345.8 651.29 345.8 624.54 349.34 624.54 349.34 651.26"/>
        <polyline class="cls-6" points="354.09 651.23 354.09 619.68 341.04 619.68 341.04 646.6 338.77 646.6 338.77 615.64 357.45 615.64 357.45 601.11 332.09 601.11 332.09 348.32 335.04 348.32 335.04 336.67"/>
        <polyline class="cls-6" points="330.89 343.28 330.89 192.26 335.2 192.26 335.2 181.85"/>
        <polyline class="cls-6" points="267.7 401.68 267.7 428.68 105.26 428.68 105.26 583.53 267.21 583.53 267.21 596.94 185.11 596.94"/>
        <polyline class="cls-6" points="225.95 168.41 267.57 168.41 267.57 195.89 105.26 195.89 105.26 350.34 266.94 350.34 266.94 375.78"/>
        <polyline class="cls-6" points="225.91 142.4 267.73 142.4 267.73 118.04 105.26 118.04 105.26 39.51 283.66 39.51 494.62 39.45 494.62 116.74 455.97 116.74 455.97 129.32 435.16 129.32 435.16 116.74 330.89 116.74 330.89 188.65"/>
        <polyline class="cls-6" points="225.86 401.27 225.86 401.79 267.54 401.79"/>
        <polyline class="cls-6" points="225.86 401.79 225.86 401.27 225.86 401.15"/>
        <polyline class="cls-6" points="225.88 375.99 225.88 375.78 266.94 375.78"/>
        <line class="cls-6" x1="266.91" y1="610.96" x2="185.74" y2="610.96"/>
        <path class="cls-6" d="M225.88,375.99c-4.47-8.29-13.23-13.92-23.31-13.92-12.52,0-23,8.69-25.77,20.35M176.71,394.29c2.62,11.87,13.2,20.74,25.86,20.74,10.06,0,18.81-5.61,23.29-13.88M202.57,404.17c-8.63,0-15.62-6.99-15.62-15.62s6.99-15.61,15.62-15.61,15.61,6.99,15.61,15.61-6.99,15.62-15.61,15.62Z"/>
        <path class="cls-6" d="M225.91,142.4c-4.54-8.03-13.16-13.44-23.04-13.44-12.75,0-23.4,9.01-25.92,21.02M176.86,160.43c2.33,12.24,13.1,21.49,26.01,21.49,9.91,0,18.55-5.45,23.08-13.51M202.87,171.06c-8.63,0-15.62-7-15.62-15.62s6.99-15.62,15.62-15.62,15.62,6.99,15.62,15.62-7,15.62-15.62,15.62Z"/>
      </g>
      <g id="inside-walls-2" data-name="inside-walls">
        <line class="cls-7" x1="266.7" y1="195.89" x2="266.7" y2="350.34"/>
        <polyline class="cls-7" points="234.74 195.89 234.74 215.74 266.7 215.74"/>
        <polyline class="cls-7" points="202.45 195.89 202.45 215.74 234.74 215.74"/>
        <polyline class="cls-7" points="169.85 195.89 169.85 215.74 202.45 215.74"/>
        <polyline class="cls-7" points="137.38 195.89 137.38 215.74 169.85 215.74"/>
        <polyline class="cls-7" points="105.26 211.45 126.4 211.45 126.4 215.74 137.38 215.74"/>
        <polyline class="cls-7" points="260.36 221.49 241.89 221.49 241.89 227.28 240.62 227.28 240.62 250.43 266.7 250.43"/>
        <polyline class="cls-7" points="266.7 273.12 235.77 273.12 235.77 238.85 233.98 238.85 233.98 227.28 235.94 227.28"/>
        <polyline class="cls-7" points="266.7 295.72 235.79 295.72 235.77 273.12 202.62 273.12 202.62 250.43 235.77 250.43 240.62 250.43"/>
        <polyline class="cls-7" points="260.04 324.7 241.85 324.7 241.85 318.89 240.64 318.89 240.64 295.72"/>
        <polyline class="cls-7" points="235.79 318.89 234.06 318.89 234.06 307.09 235.79 307.09 235.79 295.72 202.62 295.72 202.62 273.12"/>
        <polyline class="cls-7" points="266.7 330.38 242.49 330.38 242.49 333.19 235.02 333.19 235.02 350.34"/>
        <polyline class="cls-7" points="191.81 350.34 191.81 333.26 199.4 333.26 199.4 330.38 235.02 330.38 235.02 333.19"/>
        <polyline class="cls-7" points="182.81 350.34 182.81 330.38 191.81 330.38 191.81 333.26"/>
        <polyline class="cls-7" points="138.64 350.34 138.64 330.38 175.15 330.38 175.15 333.19 182.81 333.19"/>
        <polyline class="cls-7" points="126.32 350.34 126.32 330.38 138.64 330.38"/>
        <line class="cls-7" x1="105.26" y1="334.79" x2="126.32" y2="334.79"/>
        <polyline class="cls-7" points="229.21 295.72 229.21 318.89 228.19 318.89 228.19 324.94 136.32 324.94 136.32 221.06 197.17 221.06 197.17 227.36 201.47 227.36 201.47 221.06 228.06 221.06 228.06 227.28 229.21 227.28 229.21 250.43"/>
        <line class="cls-7" x1="136.32" y1="227.19" x2="197.17" y2="227.19"/>
        <line class="cls-7" x1="201.47" y1="227.36" x2="228.06" y2="227.36"/>
        <polyline class="cls-7" points="169.85 227.28 169.85 250.43 169.85 318.89 136.32 318.89"/>
        <polyline class="cls-7" points="136.32 250.2 169.85 250.2 202.62 250.43 202.62 227.36"/>
        <line class="cls-7" x1="136.32" y1="273.12" x2="169.85" y2="273.12"/>
        <line class="cls-7" x1="136.32" y1="295.83" x2="169.85" y2="295.83"/>
        <line class="cls-7" x1="169.85" y1="318.89" x2="228.19" y2="318.89"/>
        <line class="cls-7" x1="202.62" y1="295.72" x2="202.62" y2="318.89"/>
        <polyline class="cls-7" points="105.26 227.81 130.28 227.81 130.28 318.89 105.26 318.89"/>
        <line class="cls-7" x1="105.26" y1="296.11" x2="130.28" y2="296.11"/>
        <line class="cls-7" x1="105.26" y1="273" x2="130.28" y2="273"/>
        <line class="cls-7" x1="105.26" y1="250.43" x2="130.28" y2="250.43"/>
        <line class="cls-7" x1="266.91" y1="428.68" x2="266.91" y2="583.53"/>
        <polyline class="cls-7" points="234.49 583.53 234.49 563.79 266.91 563.79"/>
        <polyline class="cls-7" points="202.66 583.53 202.66 563.79 234.49 563.79"/>
        <polyline class="cls-7" points="170.23 583.53 170.23 563.79 202.66 563.79"/>
        <polyline class="cls-7" points="137.72 583.53 137.72 563.79 170.23 563.79"/>
        <polyline class="cls-7" points="105.26 567.28 127.43 567.28 127.43 563.79 137.72 563.79"/>
        <line class="cls-7" x1="105.26" y1="550.26" x2="237.3" y2="550.26"/>
        <polyline class="cls-7" points="110.32 563.36 123.43 563.36 123.43 557.74 132.28 557.74 132.28 550.26"/>
        <polyline class="cls-7" points="138.57 550.26 138.57 557.91 164.87 557.91 164.87 550.26"/>
        <polyline class="cls-7" points="175.77 550.26 175.77 557.91 229.98 557.91 229.98 550.26"/>
        <polyline class="cls-7" points="235.68 550.26 235.68 462.68 105.26 462.68"/>
        <polyline class="cls-7" points="105.26 444.98 127.68 444.98 127.68 449.06 266.91 449.06"/>
        <line class="cls-7" x1="235.26" y1="428.68" x2="235.26" y2="449.06"/>
        <line class="cls-7" x1="202.74" y1="428.68" x2="202.74" y2="449.06"/>
        <line class="cls-7" x1="170.47" y1="428.68" x2="170.47" y2="449.06"/>
        <line class="cls-7" x1="137.89" y1="428.68" x2="137.89" y2="449.06"/>
        <line class="cls-7" x1="105.26" y1="486.77" x2="235.68" y2="486.77"/>
        <polyline class="cls-7" points="105.26 506.47 137.98 506.47 137.98 527.62 235.68 527.62"/>
        <line class="cls-7" x1="137.89" y1="550.26" x2="137.89" y2="527.62"/>
        <line class="cls-7" x1="170.47" y1="550.26" x2="170.47" y2="527.62"/>
        <line class="cls-7" x1="202.87" y1="550.26" x2="202.87" y2="527.62"/>
        <line class="cls-7" x1="137.89" y1="462.68" x2="137.89" y2="486.77"/>
        <line class="cls-7" x1="170.47" y1="462.68" x2="170.47" y2="486.77"/>
        <line class="cls-7" x1="202.74" y1="462.68" x2="202.74" y2="486.77"/>
        <polyline class="cls-7" points="266.91 551.87 252.45 551.87 252.45 550.02 242.79 550.02 242.79 505.7 266.91 505.7"/>
        <line class="cls-7" x1="266.91" y1="530.17" x2="242.79" y2="530.17"/>
        <polyline class="cls-7" points="266.91 460.72 252.45 460.72 252.45 462.68 242.79 462.68 242.79 505.7"/>
        <line class="cls-7" x1="266.91" y1="483.21" x2="242.79" y2="483.21"/>
        <polyline class="cls-7" points="105.26 58.51 266.83 58.51 266.83 39.45"/>
        <line class="cls-7" x1="266.83" y1="58.51" x2="266.83" y2="118.04"/>
        <polyline class="cls-7" points="299.94 39.19 299.94 58.51 494.62 58.51"/>
        <polyline class="cls-7" points="261.26 454.7 242.79 454.7 242.79 462.68"/>
        <polyline class="cls-7" points="235.68 462.68 237.33 462.68 237.33 454.7 208.47 454.7 208.47 462.68"/>
        <polyline class="cls-7" points="197.61 462.68 197.61 454.7 144.36 454.7 144.36 462.68"/>
        <polyline class="cls-7" points="110.13 449.06 123.17 449.06 123.17 454.7 131.43 454.7 131.43 462.68"/>
        <polyline class="cls-7" points="299.94 58.51 299.94 343.28 330.89 343.28"/>
        <polyline class="cls-7" points="332.09 350.22 299.94 350.22 299.94 583.88 332.09 583.88"/>
        <polyline class="cls-7" points="332.33 615.64 332.33 611.74 299.94 611.74 299.94 817.15"/>
        <line class="cls-7" x1="332.09" y1="629.13" x2="330.65" y2="629.13"/>
        <line class="cls-7" x1="324.83" y1="629.13" x2="299.94" y2="629.13"/>
        <line class="cls-7" x1="332.33" y1="660.98" x2="299.94" y2="660.98"/>
        <polyline class="cls-7" points="299.94 680.96 461.35 680.96 461.35 660.98"/>
        <line class="cls-7" x1="429.39" y1="660.98" x2="429.39" y2="680.96"/>
        <line class="cls-7" x1="418.65" y1="660.98" x2="418.65" y2="680.96"/>
        <line class="cls-7" x1="386.39" y1="660.98" x2="386.39" y2="680.96"/>
        <line class="cls-7" x1="365.22" y1="660.98" x2="365.22" y2="680.96"/>
        <line class="cls-7" x1="348.09" y1="660.98" x2="348.09" y2="680.96"/>
        <line class="cls-7" x1="365.22" y1="674.09" x2="348.09" y2="674.09"/>
        <polyline class="cls-7" points="353.48 660.98 353.48 668.74 358.65 668.74"/>
        <line class="cls-7" x1="355.61" y1="674.09" x2="355.61" y2="668.74"/>
        <polyline class="cls-7" points="461.35 680.96 461.35 698.87 494.06 698.87"/>
        <polyline class="cls-7" points="494.06 739.3 461.35 739.3 461.35 698.87"/>
        <polyline class="cls-7" points="494.06 779.87 461.35 779.87 461.35 739.3"/>
        <line class="cls-7" x1="461.35" y1="817.15" x2="461.35" y2="779.87"/>
        <polyline class="cls-7" points="299.94 692.74 326.15 692.74 326.15 797.22 461.35 797.22"/>
        <line class="cls-7" x1="451.04" y1="817.15" x2="451.04" y2="797.22"/>
        <line class="cls-7" x1="429.72" y1="817.15" x2="429.72" y2="797.22"/>
        <line class="cls-7" x1="397.5" y1="817.15" x2="397.5" y2="797.22"/>
        <line class="cls-7" x1="365.15" y1="817.15" x2="365.15" y2="797.22"/>
        <line class="cls-7" x1="332.33" y1="817.15" x2="332.33" y2="797.22"/>
        <line class="cls-7" x1="299.94" y1="783.72" x2="326.15" y2="783.72"/>
        <line class="cls-7" x1="299.94" y1="728.09" x2="326.15" y2="728.09"/>
        <line class="cls-7" x1="299.94" y1="710.35" x2="326.15" y2="710.35"/>
        <polyline class="cls-7" points="333.35 785.83 333.35 686.96 455.61 686.96 455.61 701.22"/>
        <polyline class="cls-7" points="450.13 693.39 450.13 705.13 455.61 705.13 455.61 762.1 450.13 762.1"/>
        <polyline class="cls-7" points="455.61 766.7 455.61 792.59 338.77 792.59 338.77 778.01"/>
        <polyline class="cls-7" points="333.35 773.35 344.48 773.35 344.48 785.32"/>
        <polyline class="cls-7" points="455.61 757.53 450.13 757.53 450.13 785.83"/>
        <line class="cls-7" x1="267.1" y1="660.77" x2="267.1" y2="817.15"/>
        <polyline class="cls-7" points="299.94 698.09 267.1 698.09 235.17 698.09 235.17 661.72"/>
        <line class="cls-7" x1="235.04" y1="817.15" x2="235.04" y2="698.09"/>
        <polyline class="cls-7" points="267.1 720.13 235.04 720.13 207.61 720.13 204.04 726.43"/>
        <polyline class="cls-7" points="252.91 660.77 252.91 674.52 267.1 674.52"/>
        <line class="cls-7" x1="235.17" y1="685.83" x2="267.1" y2="685.83"/>
        <line class="cls-7" x1="261.78" y1="674.52" x2="261.78" y2="685.83"/>
        <polyline class="cls-7" points="257.43 817.15 257.43 740.41 258.59 740.41 258.59 750"/>
        <polyline class="cls-7" points="267.1 739.43 263.41 739.43 263.41 750"/>
        <polyline class="cls-7" points="235.04 739.43 253.83 739.43 253.83 745.63 248.09 745.63 248.07 739.43"/>
        <polyline class="cls-7" points="235.04 763.74 252.65 763.74 252.65 792.43 235.04 792.43"/>
        <line class="cls-7" x1="235.04" y1="782.96" x2="252.65" y2="782.96"/>
        <line class="cls-7" x1="131.71" y1="670.43" x2="137.38" y2="661.72"/>
        <line class="cls-7" x1="138.68" y1="670.99" x2="132.7" y2="680.25"/>
        <polyline class="cls-7" points="104.7 758.17 137.78 739.48 202.91 739.48 235.04 757.62"/>
        <line class="cls-7" x1="132.7" y1="720.55" x2="136.22" y2="726.96"/>
        <polyline class="cls-7" points="138.13 739.48 138.13 732.7 145.96 728.26 145.96 720.55"/>
        <polyline class="cls-7" points="157.61 739.48 157.61 720.55 183.43 720.55 183.43 739.48"/>
        <polyline class="cls-7" points="195.26 720.55 195.26 728.61 202.74 732.7 202.74 739.48"/>
        <line class="cls-7" x1="332.09" y1="570.33" x2="299.94" y2="570.33"/>
        <line class="cls-7" x1="332.09" y1="506.61" x2="299.94" y2="506.61"/>
        <line class="cls-7" x1="332.09" y1="472.76" x2="299.94" y2="472.76"/>
        <line class="cls-7" x1="332.09" y1="461.35" x2="299.94" y2="461.35"/>
        <line class="cls-7" x1="332.09" y1="427.96" x2="299.94" y2="427.96"/>
        <polyline class="cls-7" points="332.09 398.09 324.85 398.09 324.85 387 299.94 387"/>
        <line class="cls-7" x1="332.09" y1="376.24" x2="299.94" y2="376.24"/>
        <line class="cls-7" x1="330.89" y1="39.5" x2="330.89" y2="58.51"/>
        <line class="cls-7" x1="364.76" y1="39.45" x2="364.76" y2="58.51"/>
        <line class="cls-7" x1="406.3" y1="39.47" x2="406.3" y2="58.51"/>
        <line class="cls-7" x1="419.15" y1="39.45" x2="419.15" y2="58.51"/>
        <line class="cls-7" x1="463.04" y1="39.46" x2="463.04" y2="58.51"/>
        <line class="cls-7" x1="494.62" y1="70.43" x2="479.78" y2="70.43"/>
        <polyline class="cls-7" points="479.78 64.52 330.89 64.52 330.89 116.74 299.94 116.74"/>
        <polyline class="cls-7" points="299.94 91.87 324.43 91.87 324.43 64.52 307.7 64.52"/>
        <line class="cls-7" x1="299.94" y1="70.78" x2="324.43" y2="70.78"/>
        <line class="cls-7" x1="324.43" y1="80.35" x2="330.89" y2="80.35"/>
        <line class="cls-7" x1="299.94" y1="141.52" x2="303.98" y2="141.52"/>
        <polyline class="cls-7" points="308.61 141.52 313.7 141.52 313.7 116.74"/>
        <line class="cls-7" x1="311.54" y1="161.61" x2="311.54" y2="145.76"/>
        <line class="cls-7" x1="311.54" y1="142.89" x2="311.54" y2="141.52"/>
        <polyline class="cls-7" points="311.54 165 311.54 194.8 330.89 194.8"/>
        <line class="cls-7" x1="330.89" y1="177.91" x2="311.54" y2="177.91"/>
        <polyline class="cls-7" points="330.89 166.89 311.54 166.89 299.94 166.89"/>
        <line class="cls-7" x1="311.54" y1="194.8" x2="299.94" y2="194.8"/>
        <polyline class="cls-7" points="299.94 208.63 308.61 208.63 308.61 194.8"/>
        <polyline class="cls-7" points="330.89 207.78 325.3 207.78 325.3 208.63 308.61 208.63 308.61 209.67"/>
        <polyline class="cls-7" points="330.89 218.22 316.63 218.22 316.63 208.63"/>
        <polyline class="cls-7" points="308.61 212.8 308.61 213.42 316.63 213.42 326.8 213.42 326.8 218.22"/>
        <polyline class="cls-7" points="330.89 229.76 308.61 229.76 308.61 213.42"/>
        <polyline class="cls-7" points="330.89 243.91 310.37 243.91 310.37 234.72 308.61 234.72 308.61 229.76"/>
        <line class="cls-7" x1="308.61" y1="234.72" x2="299.94" y2="234.72"/>
        <line class="cls-7" x1="330.89" y1="273.07" x2="299.94" y2="273.07"/>
        <line class="cls-7" x1="330.89" y1="296.28" x2="299.94" y2="318.67"/>
        <polyline class="cls-7" points="242.79 550.02 242.79 557.91 260.48 557.91"/>
      </g>
    </g>
  </g>
</svg>